<?xml version="1.0" standalone="no"?>
<!DOCTYPE svg PUBLIC "-//W3C//DTD SVG 20010904//EN"
 "http://www.w3.org/TR/2001/REC-SVG-20010904/DTD/svg10.dtd">
<svg version="1.0" xmlns="http://www.w3.org/2000/svg"
 width="16.000000pt" height="16.000000pt" viewBox="0 0 16.000000 16.000000"
 preserveAspectRatio="xMidYMid meet">
<metadata>
Created by potrace 1.11, written by Peter Selinger 2001-2013
</metadata>
<g transform="translate(0.000000,16.000000) scale(0.006154,-0.006154)"
fill="#000000" stroke="none">
<path d="M0 1300 l0 -1300 1300 0 1300 0 0 1300 0 1300 -1300 0 -1300 0 0
-1300z m1440 431 l0 -230 58 27 c48 23 71 27 142 27 76 0 93 -4 152 -33 113
-55 173 -151 185 -292 6 -78 -17 -185 -52 -245 -31 -54 -106 -122 -158 -145
-97 -42 -232 -48 -319 -13 -34 13 -42 13 -85 -1 -25 -9 -48 -16 -50 -16 -2 0
-3 254 -3 564 l0 565 43 9 c23 6 52 10 65 11 l22 1 0 -229z m-435 -196 c86
-28 89 -33 70 -104 l-17 -60 -34 26 c-67 51 -175 69 -233 38 -32 -16 -41 -33
-41 -74 0 -44 37 -74 152 -120 166 -67 218 -123 218 -236 0 -45 -28 -112 -56
-137 -11 -10 -42 -27 -69 -40 -69 -31 -205 -31 -286 0 -91 36 -92 38 -84 116
l7 67 27 -24 c71 -67 210 -97 284 -62 49 23 65 70 42 118 -16 35 -66 63 -195
113 -110 42 -160 106 -160 203 0 93 41 150 132 183 62 22 163 19 243 -7z"/>
<path d="M1505 1433 c-68 -36 -65 -23 -65 -275 l0 -228 28 -11 c92 -36 224
-14 293 48 60 54 82 104 87 199 7 128 -31 210 -117 258 -40 22 -61 26 -122 26
-48 -1 -85 -6 -104 -17z"/>
</g>
</svg>
